<svg style="object-fit:cover" id="my-svg" version="1" baseProfile="full" width="100%" height="100%" viewBox="0 0 1319 668" xmlns="http://www.w3.org/2000/svg"><rect width="1319" height="668" fill="#1d1d1d"/><defs><linearGradient id="linear-gradient" x1="0" x2="1" y1="0" y2="1"><stop offset="0%" stop-color="#0091ff90"/><stop offset="100%" stop-color="#8300b390"/></linearGradient></defs><path transform="scale(1, -1)" style="transform-origin:center" d="M 0,668 V 0,133 C 59.13632478632478,143.23333333333335 118.27264957264956,153.46666666666667 182,160 C 245.72735042735044,166.53333333333333 314.04572649572646,169.36666666666667 404,158 C 493.95427350427354,146.63333333333333 605.5444444444445,121.06666666666668 689,122 C 772.4555555555555,122.93333333333332 827.7764957264957,150.36666666666665 895,159 C 962.2235042735043,167.63333333333335 1041.3495726495726,157.46666666666667 1114,150 C 1186.6504273504274,142.53333333333333 1252.8252136752137,137.76666666666665 1319,133 C 1319,133 1319,668 1319,668 Z" stroke="none" stroke-width="0" fill="url(#linear-gradient)" class="transition-all duration-300 ease-in-out delay-150"/><defs><linearGradient id="linear-gradient" x1="0" x2="1" y1="0" y2="1"><stop offset="0%" stop-color="#0091ffff"/><stop offset="100%" stop-color="#8300b3ff"/></linearGradient></defs><path transform="scale(1, -1)" d="M 0,668 V 0,200 C 51.93376068376067,205.9153846153846 103.86752136752133,211.83076923076922 179,214 C 254.13247863247867,216.16923076923078 352.4636752136753,214.5923076923077 445,200 C 537.5363247863247,185.4076923076923 624.2777777777777,157.79999999999998 699,159 C 773.7222222222223,160.20000000000002 836.4252136752137,190.20769230769233 894,201 C 951.5747863247863,211.79230769230767 1004.0213675213674,203.36923076923077 1074,200 C 1143.9786324786326,196.63076923076923 1231.4893162393164,198.31538461538463 1319,200 C 1319,200 1319,668 1319,668 Z" stroke="none" stroke-width="0" fill="url(#linear-gradient)" class="transition-all duration-300 ease-in-out delay-150" style="transform-origin: center center;"/></svg>